<svg width="128" height="128" viewBox="0 0 128 128" fill="none" xmlns="http://www.w3.org/2000/svg">
<g clip-path="url(#clip0_1_2)">
<path d="M2 56.19C2.50527 56.1883 2.99115 55.9953 3.36 55.65L10.83 48.65C11.0494 48.4789 11.2306 48.2638 11.3622 48.0186C11.4937 47.7734 11.5727 47.5035 11.5939 47.226C11.6152 46.9486 11.5784 46.6698 11.4858 46.4074C11.3931 46.145 11.2468 45.9048 11.0561 45.7022C10.8653 45.4996 10.6344 45.339 10.3781 45.2308C10.1218 45.1225 9.84569 45.0689 9.56748 45.0734C9.28926 45.0779 9.01504 45.1404 8.76236 45.2569C8.50967 45.3734 8.28408 45.5413 8.1 45.75L0.63 52.75C0.34401 53.0256 0.146562 53.3802 0.0628216 53.7684C-0.0209191 54.1567 0.01284 54.5611 0.159796 54.9301C0.306752 55.2991 0.56025 55.616 0.88798 55.8403C1.21571 56.0647 1.60283 56.1865 2 56.19Z" fill="#28FF5E" fill-opacity="0.65"/>
<path d="M13 55.57C13.1791 55.7627 13.3944 55.9181 13.6337 56.0274C13.8729 56.1367 14.1314 56.1978 14.3943 56.2071C14.6571 56.2164 14.9193 56.1737 15.1656 56.0816C15.412 55.9894 15.6378 55.8495 15.83 55.67L27.25 45C27.4528 44.8237 27.6179 44.6083 27.7356 44.3667C27.8532 44.1252 27.921 43.8624 27.9349 43.594C27.9487 43.3257 27.9084 43.0573 27.8162 42.8049C27.7241 42.5525 27.582 42.3213 27.3985 42.125C27.215 41.9287 26.9938 41.7714 26.7482 41.6625C26.5025 41.5536 26.2375 41.4953 25.9688 41.4911C25.7001 41.4869 25.4334 41.5369 25.1845 41.6381C24.9355 41.7393 24.7096 41.8896 24.52 42.08L13.11 52.75C12.7225 53.11 12.4934 53.6088 12.4728 54.1373C12.4522 54.6658 12.6417 55.1809 13 55.57Z" fill="#28FF5E" fill-opacity="0.65"/>
<path d="M79.36 17.64C79.0178 17.27 78.5486 17.0428 78.0462 17.0039C77.5437 16.965 77.0451 17.1171 76.65 17.43L44.46 42.75L29.26 28.54C28.8896 28.1941 28.4018 28.0018 27.895 28.0018C27.3882 28.0018 26.9004 28.1941 26.53 28.54L18.1 36.41C17.8972 36.5863 17.7321 36.8017 17.6144 37.0433C17.4968 37.2848 17.429 37.5476 17.4151 37.816C17.4013 38.0843 17.4416 38.3527 17.5338 38.6051C17.6259 38.8575 17.768 39.0887 17.9515 39.285C18.135 39.4813 18.3562 39.6386 18.6018 39.7475C18.8475 39.8564 19.1125 39.9147 19.3812 39.9189C19.6499 39.9231 19.9166 39.8731 20.1655 39.7719C20.4145 39.6707 20.6404 39.5204 20.83 39.33L27.88 32.74L54 57.13V51.66L47.42 45.51L77.67 21.71L111.53 58.35C111.706 58.5515 111.92 58.7157 112.16 58.833C112.4 58.9503 112.662 59.0182 112.929 59.0328C113.195 59.0474 113.463 59.0083 113.714 58.9179C113.966 58.8274 114.197 58.6875 114.393 58.5063C114.59 58.3252 114.748 58.1064 114.858 57.8631C114.969 57.6197 115.03 57.3566 115.037 57.0894C115.044 56.8222 114.998 56.5563 114.9 56.3073C114.803 56.0584 114.657 55.8315 114.47 55.64L79.36 17.64Z" fill="#28FF5E" fill-opacity="0.65"/>
<path d="M110 10.85C108.586 10.85 107.203 11.2693 106.028 12.055C104.852 12.8406 103.935 13.9573 103.394 15.2638C102.853 16.5703 102.712 18.0079 102.987 19.3949C103.263 20.7819 103.944 22.0559 104.944 23.0558C105.944 24.0558 107.218 24.7367 108.605 25.0126C109.992 25.2885 111.43 25.1469 112.736 24.6057C114.043 24.0646 115.159 23.1481 115.945 21.9723C116.731 20.7965 117.15 19.4141 117.15 18C117.147 16.1045 116.393 14.2874 115.053 12.9471C113.713 11.6068 111.895 10.8526 110 10.85Z" fill="#28FF5E" fill-opacity="0.65"/>
<path d="M94 20H98C98.5304 20 99.0391 19.7893 99.4142 19.4142C99.7893 19.0391 100 18.5304 100 18C100 17.4696 99.7893 16.9609 99.4142 16.5858C99.0391 16.2107 98.5304 16 98 16H94C93.4696 16 92.9609 16.2107 92.5858 16.5858C92.2107 16.9609 92 17.4696 92 18C92 18.5304 92.2107 19.0391 92.5858 19.4142C92.9609 19.7893 93.4696 20 94 20Z" fill="#28FF5E" fill-opacity="0.65"/>
<path d="M126 16H122C121.47 16 120.961 16.2107 120.586 16.5858C120.211 16.9609 120 17.4696 120 18C120 18.5304 120.211 19.0391 120.586 19.4142C120.961 19.7893 121.47 20 122 20H126C126.53 20 127.039 19.7893 127.414 19.4142C127.789 19.0391 128 18.5304 128 18C128 17.4696 127.789 16.9609 127.414 16.5858C127.039 16.2107 126.53 16 126 16Z" fill="#28FF5E" fill-opacity="0.65"/>
<path d="M110 8C110.53 8 111.039 7.78929 111.414 7.41421C111.789 7.03914 112 6.53043 112 6V2C112 1.46957 111.789 0.960859 111.414 0.585786C111.039 0.210714 110.53 0 110 0C109.47 0 108.961 0.210714 108.586 0.585786C108.211 0.960859 108 1.46957 108 2V6C108 6.53043 108.211 7.03914 108.586 7.41421C108.961 7.78929 109.47 8 110 8Z" fill="#28FF5E" fill-opacity="0.65"/>
<path d="M112 34V30C112 29.4696 111.789 28.9609 111.414 28.5858C111.039 28.2107 110.53 28 110 28C109.47 28 108.961 28.2107 108.586 28.5858C108.211 28.9609 108 29.4696 108 30V34C108 34.5304 108.211 35.0391 108.586 35.4142C108.961 35.7893 109.47 36 110 36C110.53 36 111.039 35.7893 111.414 35.4142C111.789 35.0391 112 34.5304 112 34Z" fill="#28FF5E" fill-opacity="0.65"/>
<path d="M100.1 10.93C100.286 11.1158 100.506 11.2632 100.749 11.3638C100.992 11.4644 101.252 11.5161 101.515 11.5161C101.778 11.5161 102.038 11.4644 102.281 11.3638C102.524 11.2632 102.744 11.1158 102.93 10.93C103.116 10.7442 103.263 10.5236 103.364 10.2808C103.464 10.038 103.516 9.77779 103.516 9.515C103.516 9.25221 103.464 8.99199 103.364 8.74921C103.263 8.50642 103.116 8.28582 102.93 8.1L100.1 5.27C99.7247 4.89472 99.2157 4.68389 98.685 4.68389C98.1543 4.68389 97.6453 4.89472 97.27 5.27C96.8947 5.64528 96.6839 6.15427 96.6839 6.685C96.6839 7.21573 96.8947 7.72472 97.27 8.1L100.1 10.93Z" fill="#28FF5E" fill-opacity="0.65"/>
<path d="M119.9 25.07C119.525 24.6947 119.016 24.4839 118.485 24.4839C117.954 24.4839 117.445 24.6947 117.07 25.07C116.695 25.4453 116.484 25.9543 116.484 26.485C116.484 27.0157 116.695 27.5247 117.07 27.9L119.9 30.73C120.275 31.1053 120.784 31.3161 121.315 31.3161C121.846 31.3161 122.355 31.1053 122.73 30.73C123.105 30.3547 123.316 29.8457 123.316 29.315C123.316 28.7843 123.105 28.2753 122.73 27.9L119.9 25.07Z" fill="#28FF5E" fill-opacity="0.65"/>
<path d="M118.49 11.51C119.02 11.5078 119.527 11.2956 119.9 10.92L122.73 8.09C122.916 7.90418 123.063 7.68358 123.164 7.44079C123.264 7.19801 123.316 6.93779 123.316 6.675C123.316 6.41221 123.264 6.15199 123.164 5.90921C123.063 5.66642 122.916 5.44582 122.73 5.26C122.544 5.07418 122.324 4.92678 122.081 4.82621C121.838 4.72565 121.578 4.67389 121.315 4.67389C121.052 4.67389 120.792 4.72565 120.549 4.82621C120.306 4.92678 120.086 5.07418 119.9 5.26L117.07 8.1C116.792 8.37967 116.603 8.73528 116.526 9.12214C116.45 9.50899 116.489 9.90982 116.64 10.2742C116.791 10.6387 117.046 10.9504 117.373 11.1703C117.701 11.3901 118.086 11.5083 118.48 11.51H118.49Z" fill="#28FF5E" fill-opacity="0.65"/>
<path d="M97.27 27.9C97.0842 28.0858 96.9368 28.3064 96.8362 28.5492C96.7356 28.792 96.6839 29.0522 96.6839 29.315C96.6839 29.5778 96.7356 29.838 96.8362 30.0808C96.9368 30.3236 97.0842 30.5442 97.27 30.73C97.4558 30.9158 97.6764 31.0632 97.9192 31.1638C98.162 31.2644 98.4222 31.3161 98.685 31.3161C98.9478 31.3161 99.208 31.2644 99.4508 31.1638C99.6936 31.0632 99.9142 30.9158 100.1 30.73L102.93 27.9C103.305 27.5247 103.516 27.0157 103.516 26.485C103.516 25.9543 103.305 25.4453 102.93 25.07C102.555 24.6947 102.046 24.4839 101.515 24.4839C100.984 24.4839 100.475 24.6947 100.1 25.07L97.27 27.9Z" fill="#28FF5E" fill-opacity="0.65"/>
<path d="M10.41 17.08C11.2516 16.241 12.3916 15.7698 13.58 15.7698C14.7684 15.7698 15.9084 16.241 16.75 17.08C16.9357 17.266 17.1563 17.4135 17.3991 17.5141C17.6419 17.6148 17.9022 17.6666 18.165 17.6666C18.4278 17.6666 18.6881 17.6148 18.9309 17.5141C19.1737 17.4135 19.3943 17.266 19.58 17.08L20.41 16.25C20.8261 15.8333 21.3202 15.5028 21.8642 15.2773C22.4081 15.0518 22.9912 14.9357 23.58 14.9357C24.1688 14.9357 24.7519 15.0518 25.2958 15.2773C25.8398 15.5028 26.3339 15.8333 26.75 16.25C26.9358 16.4358 27.1564 16.5832 27.3992 16.6838C27.642 16.7844 27.9022 16.8361 28.165 16.8361C28.4278 16.8361 28.688 16.7844 28.9308 16.6838C29.1736 16.5832 29.3942 16.4358 29.58 16.25C29.7658 16.0642 29.9132 15.8436 30.0138 15.6008C30.1144 15.358 30.1661 15.0978 30.1661 14.835C30.1661 14.5722 30.1144 14.312 30.0138 14.0692C29.9132 13.8264 29.7658 13.6058 29.58 13.42C28.0609 11.8983 26.0214 11.0089 23.8727 10.931C21.7239 10.853 19.6254 11.5924 18 13C16.3754 12.0128 14.4665 11.5994 12.579 11.8261C10.6915 12.0527 8.93472 12.9063 7.59 14.25C7.21472 14.6253 7.00389 15.1343 7.00389 15.665C7.00389 16.1957 7.21472 16.7047 7.59 17.08C7.96528 17.4553 8.47427 17.6661 9.005 17.6661C9.53573 17.6661 10.0447 17.4553 10.42 17.08H10.41Z" fill="#28FF5E" fill-opacity="0.65"/>
<path d="M23 94C23 93.4696 23.2107 92.9609 23.5858 92.5858C23.9609 92.2107 24.4696 92 25 92H103.93C103.53 86.2395 101.42 80.7295 97.8691 76.1758C94.3185 71.6221 89.4892 68.2321 84 66.44V50C84.0077 49.5264 83.8471 49.0655 83.5468 48.6992C83.2465 48.333 82.8259 48.0852 82.36 48L60.36 44C60.0689 43.9467 59.7696 43.9586 59.4837 44.035C59.1978 44.1113 58.9324 44.2502 58.7067 44.4415C58.4809 44.6328 58.3004 44.8718 58.1782 45.1413C58.056 45.4109 57.9952 45.7041 58 46V59.82C57.9974 60.107 58.0565 60.3912 58.1735 60.6533C58.2904 60.9154 58.4624 61.1492 58.6778 61.339C58.8931 61.5287 59.1468 61.6699 59.4215 61.7529C59.6962 61.8359 59.9856 61.8588 60.27 61.82L80 59.12V65.44C78.3489 65.1512 76.6762 65.004 75 65H4C2.93913 65 1.92172 65.4214 1.17157 66.1716C0.421427 66.9217 0 67.9391 0 69L0 92H15C15.5304 92 16.0391 92.2107 16.4142 92.5858C16.7893 92.9609 17 93.4696 17 94C17 94.5304 16.7893 95.0391 16.4142 95.4142C16.0391 95.7893 15.5304 96 15 96H0V114C0 115.591 0.632141 117.117 1.75736 118.243C2.88258 119.368 4.4087 120 6 120H10C10.5304 120 11.0391 119.789 11.4142 119.414C11.7893 119.039 12 118.53 12 118C12 114.287 13.475 110.726 16.1005 108.101C18.726 105.475 22.287 104 26 104C29.713 104 33.274 105.475 35.8995 108.101C38.525 110.726 40 114.287 40 118C40 118.53 40.2107 119.039 40.5858 119.414C40.9609 119.789 41.4696 120 42 120H62C62.5304 120 63.0391 119.789 63.4142 119.414C63.7893 119.039 64 118.53 64 118C64 114.287 65.475 110.726 68.1005 108.101C70.726 105.475 74.287 104 78 104C81.713 104 85.274 105.475 87.8995 108.101C90.525 110.726 92 114.287 92 118C92 118.53 92.2107 119.039 92.5858 119.414C92.9609 119.789 93.4696 120 94 120H102C102.53 120 103.039 119.789 103.414 119.414C103.789 119.039 104 118.53 104 118V96H25C24.4696 96 23.9609 95.7893 23.5858 95.4142C23.2107 95.0391 23 94.5304 23 94ZM75 69C80.585 69.0021 86.0084 70.8742 90.4054 74.3179C94.8023 77.7615 97.9196 82.5783 99.26 88H72V69H75ZM48 75C48 74.4696 48.2107 73.9609 48.5858 73.5858C48.9609 73.2107 49.4696 73 50 73H62C62.5304 73 63.0391 73.2107 63.4142 73.5858C63.7893 73.9609 64 74.4696 64 75V86C64 86.5304 63.7893 87.0391 63.4142 87.4142C63.0391 87.7893 62.5304 88 62 88H50C49.4696 88 48.9609 87.7893 48.5858 87.4142C48.2107 87.0391 48 86.5304 48 86V75ZM28 75C28 74.4696 28.2107 73.9609 28.5858 73.5858C28.9609 73.2107 29.4696 73 30 73H42C42.5304 73 43.0391 73.2107 43.4142 73.5858C43.7893 73.9609 44 74.4696 44 75V86C44 86.5304 43.7893 87.0391 43.4142 87.4142C43.0391 87.7893 42.5304 88 42 88H30C29.4696 88 28.9609 87.7893 28.5858 87.4142C28.2107 87.0391 28 86.5304 28 86V75ZM10 88C9.46957 88 8.96086 87.7893 8.58579 87.4142C8.21071 87.0391 8 86.5304 8 86V75C8 74.4696 8.21071 73.9609 8.58579 73.5858C8.96086 73.2107 9.46957 73 10 73H22C22.5304 73 23.0391 73.2107 23.4142 73.5858C23.7893 73.9609 24 74.4696 24 75V86C24 86.5304 23.7893 87.0391 23.4142 87.4142C23.0391 87.7893 22.5304 88 22 88H10Z" fill="#28FF5E" fill-opacity="0.65"/>
<path d="M78 108C76.0222 108 74.0888 108.586 72.4443 109.685C70.7998 110.784 69.5181 112.346 68.7612 114.173C68.0043 116 67.8063 118.011 68.1921 119.951C68.578 121.891 69.5304 123.673 70.9289 125.071C72.3275 126.47 74.1093 127.422 76.0491 127.808C77.9889 128.194 79.9996 127.996 81.8268 127.239C83.6541 126.482 85.2159 125.2 86.3147 123.556C87.4135 121.911 88 119.978 88 118C88 115.348 86.9464 112.804 85.0711 110.929C83.1957 109.054 80.6522 108 78 108Z" fill="#28FF5E" fill-opacity="0.65"/>
<path d="M26 108C24.0222 108 22.0888 108.586 20.4443 109.685C18.7998 110.784 17.5181 112.346 16.7612 114.173C16.0043 116 15.8063 118.011 16.1921 119.951C16.578 121.891 17.5304 123.673 18.9289 125.071C20.3275 126.47 22.1093 127.422 24.0491 127.808C25.9889 128.194 27.9996 127.996 29.8268 127.239C31.6541 126.482 33.2159 125.2 34.3147 123.556C35.4135 121.911 36 119.978 36 118C36 115.348 34.9464 112.804 33.0711 110.929C31.1957 109.054 28.6522 108 26 108Z" fill="#28FF5E" fill-opacity="0.65"/>
</g>
<defs>
<clipPath id="clip0_1_2">
<rect width="128" height="128" fill="white"/>
</clipPath>
</defs>
</svg>
