<svg xmlns="http://www.w3.org/2000/svg" viewBox="0 0 24 24" width="64" height="64" fill="none" stroke="#2c3e50" stroke-width="1.25" stroke-linejoin="round" stroke-linecap="round" role="img" aria-label="إعدادات">
  <path d="M18.47 10.28L20.7 9.69L20.7 14.31L18.47 13.72A6.7 6.7 0 0 1 17.8 15.36L19.79 16.51L16.51 19.79L15.36 17.8A6.7 6.7 0 0 1 13.72 18.47L14.31 20.7L9.69 20.7L10.28 18.47A6.7 6.7 0 0 1 8.64 17.8L7.49 19.79L4.21 16.51L6.2 15.36A6.7 6.7 0 0 1 5.53 13.72L3.3 14.31L3.3 9.69L5.53 10.28A6.7 6.7 0 0 1 6.2 8.64L4.21 7.49L7.49 4.21L8.64 6.2A6.7 6.7 0 0 1 10.28 5.53L9.69 3.3L14.31 3.3L13.72 5.53A6.7 6.7 0 0 1 15.36 6.2L16.51 4.21L19.79 7.49L17.8 8.64A6.7 6.7 0 0 1 18.47 10.28Z"/>
  <circle cx="12" cy="12" r="3.1"/>
</svg>
